  0
SECTION
  2
HEADER
  9
$ANGBASE
  50
0.0
  9
$ANGDIR
  70
1
  9
$MEASUREMENT
  70
1
  9
$INSUNITS
  70
4
  0
ENDSEC
  0
SECTION
  2
TABLES
  0
TABLE
  2
LTYPE
  70
4
  0
LTYPE
  5
40F
  2
CONTINUOUS
  70
0
  3
Solid line
  72
65
  73
0
  40
0.0
  0
LTYPE
  5
410
  2
DASHDOT
 70
0
  3
Dash Dot ____ _ ____ _
 72
65
 73
4
 40
2.0
 49
1.25
 49
-0.25
 49
0.25
 49
-0.25
  0
LTYPE
  5
411
  2
DASHED
 70
0
  3
Dashed __ __ __ __ __
 72
65
 73
2
 40
0.75
 49
0.5
 49
-0.25
  0
LTYPE
  5
43B
  2
DOTTED
 70
0
  3
Dotted .  .  .  .
 72
65
 73
2
 40
0.2
 49
0.0
 49
-0.2
  0
ENDTAB
  0
TABLE
  2
STYLE
  70
4
  0
STYLE
  2
KICAD
  70
0
  40
0
  41
1
  42
1
  50
0
  71
0
  3
isocp.shx
  0
STYLE
  2
KICADB
  70
0
  40
0
  41
1
  42
1
  50
0
  71
0
  3
isocp.shx
  0
STYLE
  2
KICADI
  70
0
  40
0
  41
1
  42
1
  50
15
  71
0
  3
isocp.shx
  0
STYLE
  2
KICADBI
  70
0
  40
0
  41
1
  42
1
  50
15
  71
0
  3
isocp.shx
  0
ENDTAB
  0
TABLE
  2
LAYER
  70
1
  0
LAYER
  2
Edge.Cuts
  70
0
  62
254
  420
13685453
  6
CONTINUOUS
  0
ENDTAB
  0
ENDSEC
  0
SECTION
  2
ENTITIES
0
LINE
8
Edge.Cuts
6
CONTINUOUS
10
151.
20
-23.9749999999999979
11
151.4149610000000052
21
-23.9921629999999979
0
LINE
8
Edge.Cuts
6
CONTINUOUS
10
151.4149610000000052
20
-23.9921629999999979
11
151.8270880000000034
21
-24.0435339999999975
0
LINE
8
Edge.Cuts
6
CONTINUOUS
10
151.8270880000000034
20
-24.0435339999999975
11
152.2335649999999987
21
-24.1287640000000003
0
LINE
8
Edge.Cuts
6
CONTINUOUS
10
152.2335649999999987
20
-24.1287640000000003
11
152.6316149999999823
21
-24.2472679999999983
0
LINE
8
Edge.Cuts
6
CONTINUOUS
10
152.6316149999999823
20
-24.2472679999999983
11
153.0185199999999952
21
-24.3982390000000002
0
LINE
8
Edge.Cuts
6
CONTINUOUS
10
153.0185199999999952
20
-24.3982390000000002
11
153.3916360000000054
21
-24.5806439999999995
0
LINE
8
Edge.Cuts
6
CONTINUOUS
10
153.3916360000000054
20
-24.5806439999999995
11
153.7484149999999943
21
-24.7932379999999988
0
LINE
8
Edge.Cuts
6
CONTINUOUS
10
153.7484149999999943
20
-24.7932379999999988
11
154.0864190000000065
21
-25.0345689999999976
0
LINE
8
Edge.Cuts
6
CONTINUOUS
10
154.0864190000000065
20
-25.0345689999999976
11
154.4033399999999858
21
-25.3029869999999981
0
LINE
8
Edge.Cuts
6
CONTINUOUS
10
154.4033399999999858
20
-25.3029869999999981
11
154.6970129999999983
21
-25.59666
0
LINE
8
Edge.Cuts
6
CONTINUOUS
10
154.6970129999999983
20
-25.59666
11
154.9654309999999953
21
-25.9135809999999971
0
LINE
8
Edge.Cuts
6
CONTINUOUS
10
154.9654309999999953
20
-25.9135809999999971
11
155.2067619999999977
21
-26.2515849999999986
0
LINE
8
Edge.Cuts
6
CONTINUOUS
10
155.2067619999999977
20
-26.2515849999999986
11
155.4193559999999934
21
-26.6083639999999981
0
LINE
8
Edge.Cuts
6
CONTINUOUS
10
155.4193559999999934
20
-26.6083639999999981
11
155.601760999999982
21
-26.9814799999999977
0
LINE
8
Edge.Cuts
6
CONTINUOUS
10
155.601760999999982
20
-26.9814799999999977
11
155.7527319999999804
21
-27.368385
0
LINE
8
Edge.Cuts
6
CONTINUOUS
10
155.7527319999999804
20
-27.368385
11
155.8712359999999819
21
-27.7664349999999978
0
LINE
8
Edge.Cuts
6
CONTINUOUS
10
155.8712359999999819
20
-27.7664349999999978
11
155.956466000000006
21
-28.1729120000000002
0
LINE
8
Edge.Cuts
6
CONTINUOUS
10
155.956466000000006
20
-28.1729120000000002
11
156.007836999999995
21
-28.5850389999999983
0
LINE
8
Edge.Cuts
6
CONTINUOUS
10
156.007836999999995
20
-28.5850389999999983
11
156.0250000000000057
21
-29.
0
LINE
8
Edge.Cuts
6
CONTINUOUS
10
156.0250000000000057
20
-29.
11
156.0250000000000057
21
-62.4269109999999969
0
LINE
8
Edge.Cuts
6
CONTINUOUS
10
156.0250000000000057
20
-62.4269109999999969
11
156.0092420000000004
21
-62.8245359999999948
0
LINE
8
Edge.Cuts
6
CONTINUOUS
10
156.0092420000000004
20
-62.8245359999999948
11
155.9620699999999829
21
-63.2196669999999941
0
LINE
8
Edge.Cuts
6
CONTINUOUS
10
155.9620699999999829
20
-63.2196669999999941
11
155.8837790000000041
21
-63.6098269999999957
0
LINE
8
Edge.Cuts
6
CONTINUOUS
10
155.8837790000000041
20
-63.6098269999999957
11
155.7748609999999871
21
-63.9925679999999986
0
LINE
8
Edge.Cuts
6
CONTINUOUS
10
155.7748609999999871
20
-63.9925679999999986
11
155.6359989999999982
21
-64.3654909999999916
0
LINE
8
Edge.Cuts
6
CONTINUOUS
10
155.6359989999999982
20
-64.3654909999999916
11
155.4680630000000008
21
-64.7262559999999922
0
LINE
8
Edge.Cuts
6
CONTINUOUS
10
155.4680630000000008
20
-64.7262559999999922
11
155.2721070000000054
21
-65.0726009999999917
0
LINE
8
Edge.Cuts
6
CONTINUOUS
10
155.2721070000000054
20
-65.0726009999999917
11
155.0493589999999813
21
-65.402355
0
LINE
8
Edge.Cuts
6
CONTINUOUS
10
155.0493589999999813
20
-65.402355
11
154.8012169999999799
21
-65.7134489999999971
0
LINE
8
Edge.Cuts
6
CONTINUOUS
10
154.8012169999999799
20
-65.7134489999999971
11
154.5292369999999949
21
-66.0039319999999918
0
LINE
8
Edge.Cuts
6
CONTINUOUS
10
154.5292369999999949
20
-66.0039319999999918
11
154.2351239999999848
21
-66.2719840000000033
0
LINE
8
Edge.Cuts
6
CONTINUOUS
10
154.2351239999999848
20
-66.2719840000000033
11
153.9207219999999836
21
-66.5159209999999916
0
LINE
8
Edge.Cuts
6
CONTINUOUS
10
153.9207219999999836
20
-66.5159209999999916
11
137.1083399999999983
21
-78.5247650000000021
0
LINE
8
Edge.Cuts
6
CONTINUOUS
10
137.1083399999999983
20
-78.5247650000000021
11
136.9478990000000067
21
-78.6393279999999919
0
LINE
8
Edge.Cuts
6
CONTINUOUS
10
136.9478990000000067
20
-78.6393279999999919
11
136.64619399999998
21
-78.8931749999999994
0
LINE
8
Edge.Cuts
6
CONTINUOUS
10
136.64619399999998
20
-78.8931749999999994
11
136.3655219999999986
21
-79.1700989999999933
0
LINE
8
Edge.Cuts
6
CONTINUOUS
10
136.3655219999999986
20
-79.1700989999999933
11
136.1076419999999985
21
-79.4683649999999915
0
LINE
8
Edge.Cuts
6
CONTINUOUS
10
136.1076419999999985
20
-79.4683649999999915
11
135.8741729999999848
21
-79.7860999999999905
0
LINE
8
Edge.Cuts
6
CONTINUOUS
10
135.8741729999999848
20
-79.7860999999999905
11
135.6665769999999895
21
-80.1213139999999981
0
LINE
8
Edge.Cuts
6
CONTINUOUS
10
135.6665769999999895
20
-80.1213139999999981
11
135.486157999999989
21
-80.4719029999999975
0
LINE
8
Edge.Cuts
6
CONTINUOUS
10
135.486157999999989
20
-80.4719029999999975
11
135.3340460000000007
21
-80.8356699999999933
0
LINE
8
Edge.Cuts
6
CONTINUOUS
10
135.3340460000000007
20
-80.8356699999999933
11
135.2111950000000036
21
-81.210331999999994
0
LINE
8
Edge.Cuts
6
CONTINUOUS
10
135.2111950000000036
20
-81.210331999999994
11
135.1183759999999836
21
-81.5935399999999902
0
LINE
8
Edge.Cuts
6
CONTINUOUS
10
135.1183759999999836
20
-81.5935399999999902
11
135.0561710000000062
21
-81.9828919999999925
0
LINE
8
Edge.Cuts
6
CONTINUOUS
10
135.0561710000000062
20
-81.9828919999999925
11
135.0249689999999987
21
-82.3759439999999898
0
LINE
8
Edge.Cuts
6
CONTINUOUS
10
135.0249689999999987
20
-82.3759439999999898
11
135.0250000000000057
21
-82.573088999999996
0
LINE
8
Edge.Cuts
6
CONTINUOUS
10
135.0250000000000057
20
-82.573088999999996
11
135.0250000000000057
21
-128.
0
LINE
8
Edge.Cuts
6
CONTINUOUS
10
135.0250000000000057
20
-128.
11
135.007836999999995
21
-128.4149610000000052
0
LINE
8
Edge.Cuts
6
CONTINUOUS
10
135.007836999999995
20
-128.4149610000000052
11
134.956466000000006
21
-128.8270880000000034
0
LINE
8
Edge.Cuts
6
CONTINUOUS
10
134.956466000000006
20
-128.8270880000000034
11
134.8712359999999819
21
-129.2335649999999987
0
LINE
8
Edge.Cuts
6
CONTINUOUS
10
134.8712359999999819
20
-129.2335649999999987
11
134.7527319999999804
21
-129.6316149999999823
0
LINE
8
Edge.Cuts
6
CONTINUOUS
10
134.7527319999999804
20
-129.6316149999999823
11
134.601760999999982
21
-130.0185199999999952
0
LINE
8
Edge.Cuts
6
CONTINUOUS
10
134.601760999999982
20
-130.0185199999999952
11
134.4193559999999934
21
-130.3916360000000054
0
LINE
8
Edge.Cuts
6
CONTINUOUS
10
134.4193559999999934
20
-130.3916360000000054
11
134.2067619999999977
21
-130.7484149999999943
0
LINE
8
Edge.Cuts
6
CONTINUOUS
10
134.2067619999999977
20
-130.7484149999999943
11
133.9654309999999953
21
-131.0864190000000065
0
LINE
8
Edge.Cuts
6
CONTINUOUS
10
133.9654309999999953
20
-131.0864190000000065
11
133.6970129999999983
21
-131.4033399999999858
0
LINE
8
Edge.Cuts
6
CONTINUOUS
10
133.6970129999999983
20
-131.4033399999999858
11
133.4033399999999858
21
-131.6970129999999983
0
LINE
8
Edge.Cuts
6
CONTINUOUS
10
133.4033399999999858
20
-131.6970129999999983
11
133.0864190000000065
21
-131.9654309999999953
0
LINE
8
Edge.Cuts
6
CONTINUOUS
10
133.0864190000000065
20
-131.9654309999999953
11
132.7484149999999943
21
-132.2067619999999977
0
LINE
8
Edge.Cuts
6
CONTINUOUS
10
132.7484149999999943
20
-132.2067619999999977
11
132.3916360000000054
21
-132.4193559999999934
0
LINE
8
Edge.Cuts
6
CONTINUOUS
10
132.3916360000000054
20
-132.4193559999999934
11
132.0185199999999952
21
-132.601760999999982
0
LINE
8
Edge.Cuts
6
CONTINUOUS
10
132.0185199999999952
20
-132.601760999999982
11
131.6316149999999823
21
-132.7527319999999804
0
LINE
8
Edge.Cuts
6
CONTINUOUS
10
131.6316149999999823
20
-132.7527319999999804
11
131.2335649999999987
21
-132.8712359999999819
0
LINE
8
Edge.Cuts
6
CONTINUOUS
10
131.2335649999999987
20
-132.8712359999999819
11
130.8270880000000034
21
-132.956466000000006
0
LINE
8
Edge.Cuts
6
CONTINUOUS
10
130.8270880000000034
20
-132.956466000000006
11
130.4149610000000052
21
-133.007836999999995
0
LINE
8
Edge.Cuts
6
CONTINUOUS
10
130.4149610000000052
20
-133.007836999999995
11
130.
21
-133.0250000000000057
0
LINE
8
Edge.Cuts
6
CONTINUOUS
10
130.
20
-133.0250000000000057
11
72.0460819999999984
21
-133.0250000000000057
0
LINE
8
Edge.Cuts
6
CONTINUOUS
10
72.0460819999999984
20
-133.0250000000000057
11
71.6287030000000016
21
-133.0076359999999909
0
LINE
8
Edge.Cuts
6
CONTINUOUS
10
71.6287030000000016
20
-133.0076359999999909
11
71.2142079999999993
21
-132.9556639999999845
0
LINE
8
Edge.Cuts
6
CONTINUOUS
10
71.2142079999999993
20
-132.9556639999999845
11
70.8054630000000031
21
-132.8694439999999872
0
LINE
8
Edge.Cuts
6
CONTINUOUS
10
70.8054630000000031
20
-132.8694439999999872
11
70.4052909999999912
21
-132.7495710000000031
0
LINE
8
Edge.Cuts
6
CONTINUOUS
10
70.4052909999999912
20
-132.7495710000000031
11
70.0164589999999976
21
-132.5968739999999855
0
LINE
8
Edge.Cuts
6
CONTINUOUS
10
70.0164589999999976
20
-132.5968739999999855
11
69.6416529999999909
21
-132.4124079999999992
0
LINE
8
Edge.Cuts
6
CONTINUOUS
10
69.6416529999999909
20
-132.4124079999999992
11
69.2834649999999925
21
-132.1974479999999801
0
LINE
8
Edge.Cuts
6
CONTINUOUS
10
69.2834649999999925
20
-132.1974479999999801
11
68.9443689999999947
21
-131.9534789999999873
0
LINE
8
Edge.Cuts
6
CONTINUOUS
10
68.9443689999999947
20
-131.9534789999999873
11
68.6267089999999911
21
-131.6821879999999965
0
LINE
8
Edge.Cuts
6
CONTINUOUS
10
68.6267089999999911
20
-131.6821879999999965
11
68.3326799999999963
21
-131.3854489999999942
0
LINE
8
Edge.Cuts
6
CONTINUOUS
10
68.3326799999999963
20
-131.3854489999999942
11
68.064313999999996
21
-131.0653130000000033
0
LINE
8
Edge.Cuts
6
CONTINUOUS
10
68.064313999999996
20
-131.0653130000000033
11
67.8234659999999963
21
-130.7239940000000047
0
LINE
8
Edge.Cuts
6
CONTINUOUS
10
67.8234659999999963
20
-130.7239940000000047
11
67.6118009999999998
21
-130.3638479999999902
0
LINE
8
Edge.Cuts
6
CONTINUOUS
10
67.6118009999999998
20
-130.3638479999999902
11
67.4307809999999961
21
-129.9873659999999802
0
LINE
8
Edge.Cuts
6
CONTINUOUS
10
67.4307809999999961
20
-129.9873659999999802
11
67.2816579999999931
21
-129.5971490000000017
0
LINE
8
Edge.Cuts
6
CONTINUOUS
10
67.2816579999999931
20
-129.5971490000000017
11
67.1654609999999934
21
-129.1958950000000073
0
LINE
8
Edge.Cuts
6
CONTINUOUS
10
67.1654609999999934
20
-129.1958950000000073
11
67.0829939999999993
21
-128.78637599999999
0
LINE
8
Edge.Cuts
6
CONTINUOUS
10
67.0829939999999993
20
-128.78637599999999
11
67.0348269999999928
21
-128.3714219999999955
0
LINE
8
Edge.Cuts
6
CONTINUOUS
10
67.0348269999999928
20
-128.3714219999999955
11
67.021293
21
-127.9539009999999877
0
LINE
8
Edge.Cuts
6
CONTINUOUS
10
67.021293
20
-127.9539009999999877
11
67.9295499999999919
21
-28.9539009999999983
0
LINE
8
Edge.Cuts
6
CONTINUOUS
10
67.9295499999999919
20
-28.9539009999999983
11
67.9502990000000011
21
-28.5415309999999991
0
LINE
8
Edge.Cuts
6
CONTINUOUS
10
67.9502990000000011
20
-28.5415309999999991
11
68.0048329999999908
21
-28.1322569999999992
0
LINE
8
Edge.Cuts
6
CONTINUOUS
10
68.0048329999999908
20
-28.1322569999999992
11
68.0927829999999972
21
-27.7288420000000002
0
LINE
8
Edge.Cuts
6
CONTINUOUS
10
68.0927829999999972
20
-27.7288420000000002
11
68.2135549999999995
21
-27.3340089999999982
0
LINE
8
Edge.Cuts
6
CONTINUOUS
10
68.2135549999999995
20
-27.3340089999999982
11
68.3663349999999923
21
-26.9504239999999982
0
LINE
8
Edge.Cuts
6
CONTINUOUS
10
68.3663349999999923
20
-26.9504239999999982
11
68.5500899999999973
21
-26.5806769999999979
0
LINE
8
Edge.Cuts
6
CONTINUOUS
10
68.5500899999999973
20
-26.5806769999999979
11
68.7635810000000021
21
-26.2272629999999971
0
LINE
8
Edge.Cuts
6
CONTINUOUS
10
68.7635810000000021
20
-26.2272629999999971
11
69.0053649999999976
21
-25.8925699999999992
0
LINE
8
Edge.Cuts
6
CONTINUOUS
10
69.0053649999999976
20
-25.8925699999999992
11
69.2738099999999974
21
-25.5788559999999983
0
LINE
8
Edge.Cuts
6
CONTINUOUS
10
69.2738099999999974
20
-25.5788559999999983
11
69.5671040000000005
21
-25.2882409999999993
0
LINE
8
Edge.Cuts
6
CONTINUOUS
10
69.5671040000000005
20
-25.2882409999999993
11
69.8832680000000011
21
-25.0226849999999992
0
LINE
8
Edge.Cuts
6
CONTINUOUS
10
69.8832680000000011
20
-25.0226849999999992
11
70.2201649999999944
21
-24.7839809999999972
0
LINE
8
Edge.Cuts
6
CONTINUOUS
10
70.2201649999999944
20
-24.7839809999999972
11
70.5755219999999923
21
-24.5737419999999993
0
LINE
8
Edge.Cuts
6
CONTINUOUS
10
70.5755219999999923
20
-24.5737419999999993
11
70.9469390000000004
21
-24.3933870000000006
0
LINE
8
Edge.Cuts
6
CONTINUOUS
10
70.9469390000000004
20
-24.3933870000000006
11
71.3319099999999935
21
-24.2441320000000005
0
LINE
8
Edge.Cuts
6
CONTINUOUS
10
71.3319099999999935
20
-24.2441320000000005
11
71.7278340000000014
21
-24.1269869999999997
0
LINE
8
Edge.Cuts
6
CONTINUOUS
10
71.7278340000000014
20
-24.1269869999999997
11
72.1320389999999918
21
-24.0427420000000005
0
LINE
8
Edge.Cuts
6
CONTINUOUS
10
72.1320389999999918
20
-24.0427420000000005
11
72.5417959999999908
21
-23.9919650000000004
0
LINE
8
Edge.Cuts
6
CONTINUOUS
10
72.5417959999999908
20
-23.9919650000000004
11
72.9543389999999903
21
-23.9749999999999979
0
LINE
8
Edge.Cuts
6
CONTINUOUS
10
72.9543389999999903
20
-23.9749999999999979
11
151.
21
-23.9749999999999979
0
LINE
8
Edge.Cuts
6
CONTINUOUS
10
72.3081279999999964
20
-24.0623699999999978
11
71.8827239999999961
21
-24.1369349999999976
0
LINE
8
Edge.Cuts
6
CONTINUOUS
10
71.8827239999999961
20
-24.1369349999999976
11
71.4653799999999961
21
-24.2480799999999981
0
LINE
8
Edge.Cuts
6
CONTINUOUS
10
71.4653799999999961
20
-24.2480799999999981
11
71.0592359999999985
21
-24.3949689999999997
0
LINE
8
Edge.Cuts
6
CONTINUOUS
10
71.0592359999999985
20
-24.3949689999999997
11
70.6673469999999924
21
-24.5764959999999988
0
LINE
8
Edge.Cuts
6
CONTINUOUS
10
70.6673469999999924
20
-24.5764959999999988
11
70.2926609999999954
21
-24.7912970000000001
0
LINE
8
Edge.Cuts
6
CONTINUOUS
10
70.2926609999999954
20
-24.7912970000000001
11
69.9379959999999983
21
-25.0377559999999981
0
LINE
8
Edge.Cuts
6
CONTINUOUS
10
69.9379959999999983
20
-25.0377559999999981
11
69.6060200000000009
21
-25.3140179999999972
0
LINE
8
Edge.Cuts
6
CONTINUOUS
10
69.6060200000000009
20
-25.3140179999999972
11
69.2992299999999943
21
-25.6180069999999986
0
LINE
8
Edge.Cuts
6
CONTINUOUS
10
69.2992299999999943
20
-25.6180069999999986
11
69.0199329999999946
21
-25.9474339999999977
0
LINE
8
Edge.Cuts
6
CONTINUOUS
10
69.0199329999999946
20
-25.9474339999999977
11
68.7702309999999954
21
-26.299823
0
LINE
8
Edge.Cuts
6
CONTINUOUS
10
68.7702309999999954
20
-26.299823
11
68.5520020000000017
21
-26.6725229999999982
0
LINE
8
Edge.Cuts
6
CONTINUOUS
10
68.5520020000000017
20
-26.6725229999999982
11
68.3668869999999913
21
-27.0627299999999984
0
LINE
8
Edge.Cuts
6
CONTINUOUS
10
68.3668869999999913
20
-27.0627299999999984
11
68.2162780000000026
21
-27.4675089999999997
0
LINE
8
Edge.Cuts
6
CONTINUOUS
10
68.2162780000000026
20
-27.4675089999999997
11
68.1013090000000005
21
-27.8838159999999995
0
LINE
8
Edge.Cuts
6
CONTINUOUS
10
68.1013090000000005
20
-27.8838159999999995
11
68.0228450000000038
21
-28.3085190000000004
0
LINE
8
Edge.Cuts
6
CONTINUOUS
10
68.0228450000000038
20
-28.3085190000000004
11
67.9814750000000032
21
-28.7384229999999974
0
LINE
8
Edge.Cuts
6
CONTINUOUS
10
67.9814750000000032
20
-28.7384229999999974
11
67.9795479999999941
21
-28.9543590000000002
0
LINE
8
Edge.Cuts
6
CONTINUOUS
10
67.9795479999999941
20
-28.9543590000000002
11
67.9795479999999941
21
-28.9543599999999977
0
LINE
8
Edge.Cuts
6
CONTINUOUS
10
67.9795479999999941
20
-28.9543599999999977
11
67.0712910000000022
21
-127.9543589999999966
0
LINE
8
Edge.Cuts
6
CONTINUOUS
10
67.0712910000000022
20
-127.9543589999999966
11
67.0694429999999926
21
-128.1613199999999892
0
LINE
8
Edge.Cuts
6
CONTINUOUS
10
67.0694429999999926
20
-128.1613199999999892
11
67.1000389999999953
21
-128.5741249999999809
0
LINE
8
Edge.Cuts
6
CONTINUOUS
10
67.1000389999999953
20
-128.5741249999999809
11
67.1648169999999993
21
-128.9829619999999863
0
LINE
8
Edge.Cuts
6
CONTINUOUS
10
67.1648169999999993
20
-128.9829619999999863
11
67.2633299999999963
21
-129.3850050000000067
0
LINE
8
Edge.Cuts
6
CONTINUOUS
10
67.2633299999999963
20
-129.3850050000000067
11
67.3948960000000028
21
-129.7774770000000046
0
LINE
8
Edge.Cuts
6
CONTINUOUS
10
67.3948960000000028
20
-129.7774770000000046
11
67.5586059999999975
21
-130.1576649999999802
0
LINE
8
Edge.Cuts
6
CONTINUOUS
10
67.5586059999999975
20
-130.1576649999999802
11
67.7533299999999912
21
-130.5229420000000005
0
LINE
8
Edge.Cuts
6
CONTINUOUS
10
67.7533299999999912
20
-130.5229420000000005
11
67.9777199999999908
21
-130.8707819999999913
0
LINE
8
Edge.Cuts
6
CONTINUOUS
10
67.9777199999999908
20
-130.8707819999999913
11
68.2302269999999993
21
-131.1987819999999942
0
LINE
8
Edge.Cuts
6
CONTINUOUS
10
68.2302269999999993
20
-131.1987819999999942
11
68.509104999999991
21
-131.5046759999999892
0
LINE
8
Edge.Cuts
6
CONTINUOUS
10
68.509104999999991
20
-131.5046759999999892
11
68.812427999999997
21
-131.7863490000000013
0
LINE
8
Edge.Cuts
6
CONTINUOUS
10
68.812427999999997
20
-131.7863490000000013
11
69.1380979999999994
21
-132.0418540000000007
0
LINE
8
Edge.Cuts
6
CONTINUOUS
10
69.1380979999999994
20
-132.0418540000000007
11
69.4838649999999944
21
-132.2694259999999815
0
LINE
8
Edge.Cuts
6
CONTINUOUS
10
69.4838649999999944
20
-132.2694259999999815
11
69.847338999999991
21
-132.4674919999999929
0
LINE
8
Edge.Cuts
6
CONTINUOUS
10
69.847338999999991
20
-132.4674919999999929
11
70.2260089999999906
21
-132.6346839999999929
0
LINE
8
Edge.Cuts
6
CONTINUOUS
10
70.2260089999999906
20
-132.6346839999999929
11
70.6172579999999925
21
-132.7698450000000037
0
LINE
8
Edge.Cuts
6
CONTINUOUS
10
70.6172579999999925
20
-132.7698450000000037
11
71.0183809999999909
21
-132.8720419999999933
0
LINE
8
Edge.Cuts
6
CONTINUOUS
10
71.0183809999999909
20
-132.8720419999999933
11
71.42660699999999
21
-132.9405679999999847
0
LINE
8
Edge.Cuts
6
CONTINUOUS
10
71.42660699999999
20
-132.9405679999999847
11
71.8391129999999976
21
-132.9749500000000069
0
LINE
8
Edge.Cuts
6
CONTINUOUS
10
71.8391129999999976
20
-132.9749500000000069
11
72.0460819999999984
21
-132.9749999999999943
0
LINE
8
Edge.Cuts
6
CONTINUOUS
10
72.0460819999999984
20
-132.9749999999999943
11
130.
21
-132.9749999999999943
0
LINE
8
Edge.Cuts
6
CONTINUOUS
10
130.
20
-132.9749999999999943
11
130.2057680000000062
21
-132.9749999999999943
0
LINE
8
Edge.Cuts
6
CONTINUOUS
10
130.2057680000000062
20
-132.9749999999999943
11
130.6158969999999897
21
-132.9410149999999931
0
LINE
8
Edge.Cuts
6
CONTINUOUS
10
130.6158969999999897
20
-132.9410149999999931
11
131.0218189999999936
21
-132.8732789999999966
0
LINE
8
Edge.Cuts
6
CONTINUOUS
10
131.0218189999999936
20
-132.8732789999999966
11
131.4207609999999988
21
-132.7722530000000063
0
LINE
8
Edge.Cuts
6
CONTINUOUS
10
131.4207609999999988
20
-132.7722530000000063
11
131.8099980000000073
21
-132.6386279999999829
0
LINE
8
Edge.Cuts
6
CONTINUOUS
10
131.8099980000000073
20
-132.6386279999999829
11
132.1868709999999965
21
-132.4733159999999828
0
LINE
8
Edge.Cuts
6
CONTINUOUS
10
132.1868709999999965
20
-132.4733159999999828
11
132.5488049999999873
21
-132.2774469999999951
0
LINE
8
Edge.Cuts
6
CONTINUOUS
10
132.5488049999999873
20
-132.2774469999999951
11
132.8933289999999943
21
-132.0523589999999956
0
LINE
8
Edge.Cuts
6
CONTINUOUS
10
132.8933289999999943
20
-132.0523589999999956
11
133.2180879999999945
21
-131.7995889999999974
0
LINE
8
Edge.Cuts
6
CONTINUOUS
10
133.2180879999999945
20
-131.7995889999999974
11
133.5208639999999889
21
-131.5208639999999889
0
LINE
8
Edge.Cuts
6
CONTINUOUS
10
133.5208639999999889
20
-131.5208639999999889
11
133.7995889999999974
21
-131.2180879999999945
0
LINE
8
Edge.Cuts
6
CONTINUOUS
10
133.7995889999999974
20
-131.2180879999999945
11
134.0523589999999956
21
-130.8933289999999943
0
LINE
8
Edge.Cuts
6
CONTINUOUS
10
134.0523589999999956
20
-130.8933289999999943
11
134.2774469999999951
21
-130.5488049999999873
0
LINE
8
Edge.Cuts
6
CONTINUOUS
10
134.2774469999999951
20
-130.5488049999999873
11
134.4733159999999828
21
-130.1868709999999965
0
LINE
8
Edge.Cuts
6
CONTINUOUS
10
134.4733159999999828
20
-130.1868709999999965
11
134.6386279999999829
21
-129.8099980000000073
0
LINE
8
Edge.Cuts
6
CONTINUOUS
10
134.6386279999999829
20
-129.8099980000000073
11
134.7722530000000063
21
-129.4207609999999988
0
LINE
8
Edge.Cuts
6
CONTINUOUS
10
134.7722530000000063
20
-129.4207609999999988
11
134.8732789999999966
21
-129.0218189999999936
0
LINE
8
Edge.Cuts
6
CONTINUOUS
10
134.8732789999999966
20
-129.0218189999999936
11
134.9410149999999931
21
-128.6158969999999897
0
LINE
8
Edge.Cuts
6
CONTINUOUS
10
134.9410149999999931
20
-128.6158969999999897
11
134.9749999999999943
21
-128.2057680000000062
0
LINE
8
Edge.Cuts
6
CONTINUOUS
10
134.9749999999999943
20
-128.2057680000000062
11
134.9749999999999943
21
-128.
0
LINE
8
Edge.Cuts
6
CONTINUOUS
10
134.9749999999999943
20
-128.
11
134.9749999999999943
21
-82.573088999999996
0
LINE
8
Edge.Cuts
6
CONTINUOUS
10
134.9749999999999943
20
-82.573088999999996
11
134.9907579999999996
21
-82.175463999999991
0
LINE
8
Edge.Cuts
6
CONTINUOUS
10
134.9907579999999996
20
-82.175463999999991
11
135.0379299999999887
21
-81.7803329999999988
0
LINE
8
Edge.Cuts
6
CONTINUOUS
10
135.0379299999999887
20
-81.7803329999999988
11
135.1162209999999959
21
-81.3901729999999901
0
LINE
8
Edge.Cuts
6
CONTINUOUS
10
135.1162209999999959
20
-81.3901729999999901
11
135.2251389999999844
21
-81.0074319999999943
0
LINE
8
Edge.Cuts
6
CONTINUOUS
10
135.2251389999999844
20
-81.0074319999999943
11
135.3640010000000018
21
-80.6345089999999942
0
LINE
8
Edge.Cuts
6
CONTINUOUS
10
135.3640010000000018
20
-80.6345089999999942
11
135.5319369999999992
21
-80.2737439999999935
0
LINE
8
Edge.Cuts
6
CONTINUOUS
10
135.5319369999999992
20
-80.2737439999999935
11
135.7278929999999946
21
-79.9273989999999941
0
LINE
8
Edge.Cuts
6
CONTINUOUS
10
135.7278929999999946
20
-79.9273989999999941
11
135.9506409999999903
21
-79.597645
0
LINE
8
Edge.Cuts
6
CONTINUOUS
10
135.9506409999999903
20
-79.597645
11
136.1987829999999917
21
-79.2865510000000029
0
LINE
8
Edge.Cuts
6
CONTINUOUS
10
136.1987829999999917
20
-79.2865510000000029
11
136.4707630000000051
21
-78.996067999999994
0
LINE
8
Edge.Cuts
6
CONTINUOUS
10
136.4707630000000051
20
-78.996067999999994
11
136.7648759999999868
21
-78.7280159999999967
0
LINE
8
Edge.Cuts
6
CONTINUOUS
10
136.7648759999999868
20
-78.7280159999999967
11
137.079277999999988
21
-78.4840789999999942
0
LINE
8
Edge.Cuts
6
CONTINUOUS
10
137.079277999999988
20
-78.4840789999999942
11
153.8916600000000017
21
-66.4752349999999979
0
LINE
8
Edge.Cuts
6
CONTINUOUS
10
153.8916600000000017
20
-66.4752349999999979
11
154.0521009999999933
21
-66.3606719999999939
0
LINE
8
Edge.Cuts
6
CONTINUOUS
10
154.0521009999999933
20
-66.3606719999999939
11
154.3538059999999916
21
-66.1068250000000006
0
LINE
8
Edge.Cuts
6
CONTINUOUS
10
154.3538059999999916
20
-66.1068250000000006
11
154.6344780000000014
21
-65.8299009999999925
0
LINE
8
Edge.Cuts
6
CONTINUOUS
10
154.6344780000000014
20
-65.8299009999999925
11
154.8923580000000015
21
-65.5316349999999943
0
LINE
8
Edge.Cuts
6
CONTINUOUS
10
154.8923580000000015
20
-65.5316349999999943
11
155.1258269999999868
21
-65.2138999999999953
0
LINE
8
Edge.Cuts
6
CONTINUOUS
10
155.1258269999999868
20
-65.2138999999999953
11
155.333422999999982
21
-64.8786860000000019
0
LINE
8
Edge.Cuts
6
CONTINUOUS
10
155.333422999999982
20
-64.8786860000000019
11
155.5138419999999826
21
-64.5280970000000025
0
LINE
8
Edge.Cuts
6
CONTINUOUS
10
155.5138419999999826
20
-64.5280970000000025
11
155.6659539999999993
21
-64.1643299999999925
0
LINE
8
Edge.Cuts
6
CONTINUOUS
10
155.6659539999999993
20
-64.1643299999999925
11
155.7888049999999964
21
-63.7896679999999989
0
LINE
8
Edge.Cuts
6
CONTINUOUS
10
155.7888049999999964
20
-63.7896679999999989
11
155.881623999999988
21
-63.4064599999999956
0
LINE
8
Edge.Cuts
6
CONTINUOUS
10
155.881623999999988
20
-63.4064599999999956
11
155.9438289999999938
21
-63.0171080000000003
0
LINE
8
Edge.Cuts
6
CONTINUOUS
10
155.9438289999999938
20
-63.0171080000000003
11
155.9750310000000013
21
-62.6240559999999959
0
LINE
8
Edge.Cuts
6
CONTINUOUS
10
155.9750310000000013
20
-62.6240559999999959
11
155.9749999999999943
21
-62.4269109999999969
0
LINE
8
Edge.Cuts
6
CONTINUOUS
10
155.9749999999999943
20
-62.4269109999999969
11
155.9749999999999943
21
-29.
0
LINE
8
Edge.Cuts
6
CONTINUOUS
10
155.9749999999999943
20
-29.
11
155.9749999999999943
21
-28.7942319999999974
0
LINE
8
Edge.Cuts
6
CONTINUOUS
10
155.9749999999999943
20
-28.7942319999999974
11
155.9410149999999931
21
-28.3841029999999996
0
LINE
8
Edge.Cuts
6
CONTINUOUS
10
155.9410149999999931
20
-28.3841029999999996
11
155.8732789999999966
21
-27.9781809999999993
0
LINE
8
Edge.Cuts
6
CONTINUOUS
10
155.8732789999999966
20
-27.9781809999999993
11
155.7722530000000063
21
-27.5792389999999976
0
LINE
8
Edge.Cuts
6
CONTINUOUS
10
155.7722530000000063
20
-27.5792389999999976
11
155.6386279999999829
21
-27.1900019999999998
0
LINE
8
Edge.Cuts
6
CONTINUOUS
10
155.6386279999999829
20
-27.1900019999999998
11
155.4733159999999828
21
-26.813129
0
LINE
8
Edge.Cuts
6
CONTINUOUS
10
155.4733159999999828
20
-26.813129
11
155.2774469999999951
21
-26.4511949999999985
0
LINE
8
Edge.Cuts
6
CONTINUOUS
10
155.2774469999999951
20
-26.4511949999999985
11
155.0523589999999956
21
-26.1066709999999986
0
LINE
8
Edge.Cuts
6
CONTINUOUS
10
155.0523589999999956
20
-26.1066709999999986
11
154.7995889999999974
21
-25.7819119999999984
0
LINE
8
Edge.Cuts
6
CONTINUOUS
10
154.7995889999999974
20
-25.7819119999999984
11
154.5208639999999889
21
-25.4791360000000005
0
LINE
8
Edge.Cuts
6
CONTINUOUS
10
154.5208639999999889
20
-25.4791360000000005
11
154.2180879999999945
21
-25.200410999999999
0
LINE
8
Edge.Cuts
6
CONTINUOUS
10
154.2180879999999945
20
-25.200410999999999
11
153.8933289999999943
21
-24.9476409999999973
0
LINE
8
Edge.Cuts
6
CONTINUOUS
10
153.8933289999999943
20
-24.9476409999999973
11
153.5488049999999873
21
-24.7225529999999978
0
LINE
8
Edge.Cuts
6
CONTINUOUS
10
153.5488049999999873
20
-24.7225529999999978
11
153.1868709999999965
21
-24.5266839999999995
0
LINE
8
Edge.Cuts
6
CONTINUOUS
10
153.1868709999999965
20
-24.5266839999999995
11
152.8099979999999789
21
-24.3613719999999994
0
LINE
8
Edge.Cuts
6
CONTINUOUS
10
152.8099979999999789
20
-24.3613719999999994
11
152.4207609999999988
21
-24.2277469999999973
0
LINE
8
Edge.Cuts
6
CONTINUOUS
10
152.4207609999999988
20
-24.2277469999999973
11
152.0218189999999936
21
-24.1267209999999999
0
LINE
8
Edge.Cuts
6
CONTINUOUS
10
152.0218189999999936
20
-24.1267209999999999
11
151.6158969999999897
21
-24.0589849999999998
0
LINE
8
Edge.Cuts
6
CONTINUOUS
10
151.6158969999999897
20
-24.0589849999999998
11
151.2057680000000062
21
-24.0249999999999986
0
LINE
8
Edge.Cuts
6
CONTINUOUS
10
151.2057680000000062
20
-24.0249999999999986
11
151.
21
-24.0249999999999986
0
LINE
8
Edge.Cuts
6
CONTINUOUS
10
151.
20
-24.0249999999999986
11
72.9543389999999903
21
-24.0249999999999986
0
LINE
8
Edge.Cuts
6
CONTINUOUS
10
72.9543389999999903
20
-24.0249999999999986
11
72.7383939999999996
21
-24.0249459999999999
0
LINE
8
Edge.Cuts
6
CONTINUOUS
10
72.7383939999999996
20
-24.0249459999999999
11
72.3081279999999964
21
-24.0623699999999978
0
CIRCLE
8
Edge.Cuts
10
99.
20
-95.5
40
0.8999999999999999
0
CIRCLE
8
Edge.Cuts
10
99.
20
-104.5
40
0.8999999999999999
0
CIRCLE
8
Edge.Cuts
10
92.75
20
-97.5
40
0.6
0
CIRCLE
8
Edge.Cuts
10
105.25
20
-97.5
40
0.6
0
CIRCLE
8
Edge.Cuts
10
92.75
20
-102.5
40
0.6
0
CIRCLE
8
Edge.Cuts
10
105.25
20
-102.5
40
0.6
0
CIRCLE
8
Edge.Cuts
10
140.
20
-60.9199999999999946
40
0.5
0
CIRCLE
8
Edge.Cuts
10
140.
20
-63.4599999999999937
40
0.5
0
CIRCLE
8
Edge.Cuts
10
140.
20
-66.
40
0.5
0
CIRCLE
8
Edge.Cuts
10
140.
20
-68.539999999999992
40
0.5
0
CIRCLE
8
Edge.Cuts
10
78.
20
-95.5
40
0.8999999999999999
0
CIRCLE
8
Edge.Cuts
10
78.
20
-104.5
40
0.8999999999999999
0
CIRCLE
8
Edge.Cuts
10
71.75
20
-97.5
40
0.6
0
CIRCLE
8
Edge.Cuts
10
84.25
20
-97.5
40
0.6
0
CIRCLE
8
Edge.Cuts
10
71.75
20
-102.5
40
0.6
0
CIRCLE
8
Edge.Cuts
10
84.25
20
-102.5
40
0.6
0
CIRCLE
8
Edge.Cuts
10
149.
20
-31.759999999999998
40
0.5
0
CIRCLE
8
Edge.Cuts
10
149.
20
-34.2999999999999972
40
0.5
0
CIRCLE
8
Edge.Cuts
10
149.
20
-36.8399999999999963
40
0.5
0
CIRCLE
8
Edge.Cuts
10
149.
20
-39.3799999999999955
40
0.5
0
CIRCLE
8
Edge.Cuts
10
149.
20
-41.9199999999999946
40
0.5
0
CIRCLE
8
Edge.Cuts
10
149.
20
-44.4600000000000009
40
0.5
0
CIRCLE
8
Edge.Cuts
10
149.
20
-47.
40
0.5
0
CIRCLE
8
Edge.Cuts
10
149.
20
-49.5399999999999991
40
0.5
0
CIRCLE
8
Edge.Cuts
10
120.
20
-95.5
40
0.8999999999999999
0
CIRCLE
8
Edge.Cuts
10
120.
20
-104.5
40
0.8999999999999999
0
CIRCLE
8
Edge.Cuts
10
113.75
20
-97.5
40
0.6
0
CIRCLE
8
Edge.Cuts
10
126.25
20
-97.5
40
0.6
0
CIRCLE
8
Edge.Cuts
10
113.75
20
-102.5
40
0.6
0
CIRCLE
8
Edge.Cuts
10
126.25
20
-102.5
40
0.6
0
CIRCLE
8
Edge.Cuts
10
99.
20
-115.5
40
0.8999999999999999
0
CIRCLE
8
Edge.Cuts
10
99.
20
-124.5
40
0.8999999999999999
0
CIRCLE
8
Edge.Cuts
10
92.75
20
-117.5
40
0.6
0
CIRCLE
8
Edge.Cuts
10
105.25
20
-117.5
40
0.6
0
CIRCLE
8
Edge.Cuts
10
92.75
20
-122.5
40
0.6
0
CIRCLE
8
Edge.Cuts
10
105.25
20
-122.5
40
0.6
0
CIRCLE
8
Edge.Cuts
10
74.
20
-29.5
40
1.375
0
CIRCLE
8
Edge.Cuts
10
74.
20
-52.5
40
1.375
0
CIRCLE
8
Edge.Cuts
10
132.
20
-29.5
40
1.375
0
CIRCLE
8
Edge.Cuts
10
132.
20
-52.5
40
1.375
0
CIRCLE
8
Edge.Cuts
10
78.8699999999999903
20
-30.7699999999999996
40
0.5
0
CIRCLE
8
Edge.Cuts
10
78.8699999999999903
20
-28.2300000000000004
40
0.5
0
CIRCLE
8
Edge.Cuts
10
81.4099999999999966
20
-30.7699999999999996
40
0.5
0
CIRCLE
8
Edge.Cuts
10
81.4099999999999966
20
-28.2300000000000004
40
0.5
0
CIRCLE
8
Edge.Cuts
10
83.9500000000000028
20
-30.7699999999999996
40
0.5
0
CIRCLE
8
Edge.Cuts
10
83.9500000000000028
20
-28.2300000000000004
40
0.5
0
CIRCLE
8
Edge.Cuts
10
86.4899999999999949
20
-30.7699999999999996
40
0.5
0
CIRCLE
8
Edge.Cuts
10
86.4899999999999949
20
-28.2300000000000004
40
0.5
0
CIRCLE
8
Edge.Cuts
10
89.0300000000000011
20
-30.7699999999999996
40
0.5
0
CIRCLE
8
Edge.Cuts
10
89.0300000000000011
20
-28.2300000000000004
40
0.5
0
CIRCLE
8
Edge.Cuts
10
91.5699999999999932
20
-30.7699999999999996
40
0.5
0
CIRCLE
8
Edge.Cuts
10
91.5699999999999932
20
-28.2300000000000004
40
0.5
0
CIRCLE
8
Edge.Cuts
10
94.1099999999999994
20
-30.7699999999999996
40
0.5
0
CIRCLE
8
Edge.Cuts
10
94.1099999999999994
20
-28.2300000000000004
40
0.5
0
CIRCLE
8
Edge.Cuts
10
96.6499999999999915
20
-30.7699999999999996
40
0.5
0
CIRCLE
8
Edge.Cuts
10
96.6499999999999915
20
-28.2300000000000004
40
0.5
0
CIRCLE
8
Edge.Cuts
10
99.1899999999999977
20
-30.7699999999999996
40
0.5
0
CIRCLE
8
Edge.Cuts
10
99.1899999999999977
20
-28.2300000000000004
40
0.5
0
CIRCLE
8
Edge.Cuts
10
101.7299999999999898
20
-30.7699999999999996
40
0.5
0
CIRCLE
8
Edge.Cuts
10
101.7299999999999898
20
-28.2300000000000004
40
0.5
0
CIRCLE
8
Edge.Cuts
10
104.269999999999996
20
-30.7699999999999996
40
0.5
0
CIRCLE
8
Edge.Cuts
10
104.269999999999996
20
-28.2300000000000004
40
0.5
0
CIRCLE
8
Edge.Cuts
10
106.8099999999999881
20
-30.7699999999999996
40
0.5
0
CIRCLE
8
Edge.Cuts
10
106.8099999999999881
20
-28.2300000000000004
40
0.5
0
CIRCLE
8
Edge.Cuts
10
109.3499999999999943
20
-30.7699999999999996
40
0.5
0
CIRCLE
8
Edge.Cuts
10
109.3499999999999943
20
-28.2300000000000004
40
0.5
0
CIRCLE
8
Edge.Cuts
10
111.8900000000000006
20
-30.7699999999999996
40
0.5
0
CIRCLE
8
Edge.Cuts
10
111.8900000000000006
20
-28.2300000000000004
40
0.5
0
CIRCLE
8
Edge.Cuts
10
114.4299999999999926
20
-30.7699999999999996
40
0.5
0
CIRCLE
8
Edge.Cuts
10
114.4299999999999926
20
-28.2300000000000004
40
0.5
0
CIRCLE
8
Edge.Cuts
10
116.9699999999999989
20
-30.7699999999999996
40
0.5
0
CIRCLE
8
Edge.Cuts
10
116.9699999999999989
20
-28.2300000000000004
40
0.5
0
CIRCLE
8
Edge.Cuts
10
119.5099999999999909
20
-30.7699999999999996
40
0.5
0
CIRCLE
8
Edge.Cuts
10
119.5099999999999909
20
-28.2300000000000004
40
0.5
0
CIRCLE
8
Edge.Cuts
10
122.0499999999999972
20
-30.7699999999999996
40
0.5
0
CIRCLE
8
Edge.Cuts
10
122.0499999999999972
20
-28.2300000000000004
40
0.5
0
CIRCLE
8
Edge.Cuts
10
124.5899999999999892
20
-30.7699999999999996
40
0.5
0
CIRCLE
8
Edge.Cuts
10
124.5899999999999892
20
-28.2300000000000004
40
0.5
0
CIRCLE
8
Edge.Cuts
10
127.1299999999999955
20
-30.7699999999999996
40
0.5
0
CIRCLE
8
Edge.Cuts
10
127.1299999999999955
20
-28.2300000000000004
40
0.5
0
CIRCLE
8
Edge.Cuts
10
99.25
20
-75.5499999999999972
40
0.8999999999999999
0
CIRCLE
8
Edge.Cuts
10
99.25
20
-84.5499999999999972
40
0.8999999999999999
0
CIRCLE
8
Edge.Cuts
10
93.
20
-77.5499999999999972
40
0.6
0
CIRCLE
8
Edge.Cuts
10
105.5
20
-77.5499999999999972
40
0.6
0
CIRCLE
8
Edge.Cuts
10
93.
20
-82.5499999999999972
40
0.6
0
CIRCLE
8
Edge.Cuts
10
105.5
20
-82.5499999999999972
40
0.6
0
CIRCLE
8
Edge.Cuts
10
99.
20
-95.5
40
0.899999
0
CIRCLE
8
Edge.Cuts
10
99.
20
-104.5
40
0.899999
0
CIRCLE
8
Edge.Cuts
10
92.75
20
-97.5
40
0.6
0
CIRCLE
8
Edge.Cuts
10
105.25
20
-97.5
40
0.6
0
CIRCLE
8
Edge.Cuts
10
92.75
20
-102.5
40
0.6
0
CIRCLE
8
Edge.Cuts
10
105.25
20
-102.5
40
0.6
0
CIRCLE
8
Edge.Cuts
10
140.
20
-60.9199999999999946
40
0.5
0
CIRCLE
8
Edge.Cuts
10
140.
20
-63.4599999999999937
40
0.5
0
CIRCLE
8
Edge.Cuts
10
140.
20
-66.
40
0.5
0
CIRCLE
8
Edge.Cuts
10
140.
20
-68.539999999999992
40
0.5
0
CIRCLE
8
Edge.Cuts
10
78.
20
-95.5
40
0.899999
0
CIRCLE
8
Edge.Cuts
10
78.
20
-104.5
40
0.899999
0
CIRCLE
8
Edge.Cuts
10
71.75
20
-97.5
40
0.6
0
CIRCLE
8
Edge.Cuts
10
84.25
20
-97.5
40
0.6
0
CIRCLE
8
Edge.Cuts
10
71.75
20
-102.5
40
0.6
0
CIRCLE
8
Edge.Cuts
10
84.25
20
-102.5
40
0.6
0
CIRCLE
8
Edge.Cuts
10
149.
20
-31.759999999999998
40
0.5
0
CIRCLE
8
Edge.Cuts
10
149.
20
-34.2999999999999972
40
0.5
0
CIRCLE
8
Edge.Cuts
10
149.
20
-36.8399999999999963
40
0.5
0
CIRCLE
8
Edge.Cuts
10
149.
20
-39.3799999999999955
40
0.5
0
CIRCLE
8
Edge.Cuts
10
149.
20
-41.9199999999999946
40
0.5
0
CIRCLE
8
Edge.Cuts
10
149.
20
-44.4600000000000009
40
0.5
0
CIRCLE
8
Edge.Cuts
10
149.
20
-47.
40
0.5
0
CIRCLE
8
Edge.Cuts
10
149.
20
-49.5399999999999991
40
0.5
0
CIRCLE
8
Edge.Cuts
10
120.
20
-95.5
40
0.899999
0
CIRCLE
8
Edge.Cuts
10
120.
20
-104.5
40
0.899999
0
CIRCLE
8
Edge.Cuts
10
113.75
20
-97.5
40
0.6
0
CIRCLE
8
Edge.Cuts
10
126.25
20
-97.5
40
0.6
0
CIRCLE
8
Edge.Cuts
10
113.75
20
-102.5
40
0.6
0
CIRCLE
8
Edge.Cuts
10
126.25
20
-102.5
40
0.6
0
CIRCLE
8
Edge.Cuts
10
99.
20
-115.5
40
0.899999
0
CIRCLE
8
Edge.Cuts
10
99.
20
-124.5
40
0.899999
0
CIRCLE
8
Edge.Cuts
10
92.75
20
-117.5
40
0.6
0
CIRCLE
8
Edge.Cuts
10
105.25
20
-117.5
40
0.6
0
CIRCLE
8
Edge.Cuts
10
92.75
20
-122.5
40
0.6
0
CIRCLE
8
Edge.Cuts
10
105.25
20
-122.5
40
0.6
0
CIRCLE
8
Edge.Cuts
10
74.
20
-29.5
40
1.3749989999999999
0
CIRCLE
8
Edge.Cuts
10
74.
20
-52.5
40
1.3749989999999999
0
CIRCLE
8
Edge.Cuts
10
132.
20
-29.5
40
1.3749989999999999
0
CIRCLE
8
Edge.Cuts
10
132.
20
-52.5
40
1.3749989999999999
0
CIRCLE
8
Edge.Cuts
10
78.8699999999999903
20
-30.7699999999999996
40
0.5
0
CIRCLE
8
Edge.Cuts
10
78.8699999999999903
20
-28.2300000000000004
40
0.5
0
CIRCLE
8
Edge.Cuts
10
81.4099999999999966
20
-30.7699999999999996
40
0.5
0
CIRCLE
8
Edge.Cuts
10
81.4099999999999966
20
-28.2300000000000004
40
0.5
0
CIRCLE
8
Edge.Cuts
10
83.9500000000000028
20
-30.7699999999999996
40
0.5
0
CIRCLE
8
Edge.Cuts
10
83.9500000000000028
20
-28.2300000000000004
40
0.5
0
CIRCLE
8
Edge.Cuts
10
86.4899999999999949
20
-30.7699999999999996
40
0.5
0
CIRCLE
8
Edge.Cuts
10
86.4899999999999949
20
-28.2300000000000004
40
0.5
0
CIRCLE
8
Edge.Cuts
10
89.0300000000000011
20
-30.7699999999999996
40
0.5
0
CIRCLE
8
Edge.Cuts
10
89.0300000000000011
20
-28.2300000000000004
40
0.5
0
CIRCLE
8
Edge.Cuts
10
91.5699999999999932
20
-30.7699999999999996
40
0.5
0
CIRCLE
8
Edge.Cuts
10
91.5699999999999932
20
-28.2300000000000004
40
0.5
0
CIRCLE
8
Edge.Cuts
10
94.1099999999999994
20
-30.7699999999999996
40
0.5
0
CIRCLE
8
Edge.Cuts
10
94.1099999999999994
20
-28.2300000000000004
40
0.5
0
CIRCLE
8
Edge.Cuts
10
96.6499999999999915
20
-30.7699999999999996
40
0.5
0
CIRCLE
8
Edge.Cuts
10
96.6499999999999915
20
-28.2300000000000004
40
0.5
0
CIRCLE
8
Edge.Cuts
10
99.1899999999999977
20
-30.7699999999999996
40
0.5
0
CIRCLE
8
Edge.Cuts
10
99.1899999999999977
20
-28.2300000000000004
40
0.5
0
CIRCLE
8
Edge.Cuts
10
101.7299999999999898
20
-30.7699999999999996
40
0.5
0
CIRCLE
8
Edge.Cuts
10
101.7299999999999898
20
-28.2300000000000004
40
0.5
0
CIRCLE
8
Edge.Cuts
10
104.269999999999996
20
-30.7699999999999996
40
0.5
0
CIRCLE
8
Edge.Cuts
10
104.269999999999996
20
-28.2300000000000004
40
0.5
0
CIRCLE
8
Edge.Cuts
10
106.8099999999999881
20
-30.7699999999999996
40
0.5
0
CIRCLE
8
Edge.Cuts
10
106.8099999999999881
20
-28.2300000000000004
40
0.5
0
CIRCLE
8
Edge.Cuts
10
109.3499999999999943
20
-30.7699999999999996
40
0.5
0
CIRCLE
8
Edge.Cuts
10
109.3499999999999943
20
-28.2300000000000004
40
0.5
0
CIRCLE
8
Edge.Cuts
10
111.8900000000000006
20
-30.7699999999999996
40
0.5
0
CIRCLE
8
Edge.Cuts
10
111.8900000000000006
20
-28.2300000000000004
40
0.5
0
CIRCLE
8
Edge.Cuts
10
114.4299999999999926
20
-30.7699999999999996
40
0.5
0
CIRCLE
8
Edge.Cuts
10
114.4299999999999926
20
-28.2300000000000004
40
0.5
0
CIRCLE
8
Edge.Cuts
10
116.9699999999999989
20
-30.7699999999999996
40
0.5
0
CIRCLE
8
Edge.Cuts
10
116.9699999999999989
20
-28.2300000000000004
40
0.5
0
CIRCLE
8
Edge.Cuts
10
119.5099999999999909
20
-30.7699999999999996
40
0.5
0
CIRCLE
8
Edge.Cuts
10
119.5099999999999909
20
-28.2300000000000004
40
0.5
0
CIRCLE
8
Edge.Cuts
10
122.0499999999999972
20
-30.7699999999999996
40
0.5
0
CIRCLE
8
Edge.Cuts
10
122.0499999999999972
20
-28.2300000000000004
40
0.5
0
CIRCLE
8
Edge.Cuts
10
124.5899999999999892
20
-30.7699999999999996
40
0.5
0
CIRCLE
8
Edge.Cuts
10
124.5899999999999892
20
-28.2300000000000004
40
0.5
0
CIRCLE
8
Edge.Cuts
10
127.1299999999999955
20
-30.7699999999999996
40
0.5
0
CIRCLE
8
Edge.Cuts
10
127.1299999999999955
20
-28.2300000000000004
40
0.5
0
CIRCLE
8
Edge.Cuts
10
99.25
20
-75.5499999999999972
40
0.899999
0
CIRCLE
8
Edge.Cuts
10
99.25
20
-84.5499999999999972
40
0.899999
0
CIRCLE
8
Edge.Cuts
10
93.
20
-77.5499999999999972
40
0.6
0
CIRCLE
8
Edge.Cuts
10
105.5
20
-77.5499999999999972
40
0.6
0
CIRCLE
8
Edge.Cuts
10
93.
20
-82.5499999999999972
40
0.6
0
CIRCLE
8
Edge.Cuts
10
105.5
20
-82.5499999999999972
40
0.6
  0
ENDSEC
  0
EOF
